<?xml version="1.0" encoding="UTF-8" standalone="no"?>
<!DOCTYPE svg PUBLIC "-//W3C//DTD SVG 1.1//EN" "http://www.w3.org/Graphics/SVG/1.1/DTD/svg11.dtd">
<svg version="1.1" xmlns="http://www.w3.org/2000/svg" xmlns:xlink="http://www.w3.org/1999/xlink" preserveAspectRatio="xMidYMid meet" viewBox="0 0 60 40" width="60" height="40"><defs><path d="M55.83 7.61C56.91 7.61 57.78 8.49 57.78 9.56C57.78 14.27 57.78 26.44 57.78 31.14C57.78 32.22 56.91 33.1 55.83 33.1C45.16 33.1 15.11 33.1 4.44 33.1C3.36 33.1 2.49 32.22 2.49 31.14C2.49 26.44 2.49 14.27 2.49 9.56C2.49 8.49 3.36 7.61 4.44 7.61C15.11 7.61 45.16 7.61 55.83 7.61Z" id="df849WJbu"></path><path d="M30.34 26.37L37.01 33.04L30.34 39.71L23.67 33.04L30.34 26.37Z" id="ccoUACHFI"></path></defs><g><g><g><use xlink:href="#df849WJbu" opacity="1" fill="#eb6534" fill-opacity="1"></use></g><g><use xlink:href="#ccoUACHFI" opacity="1" fill="#eb6534" fill-opacity="1"></use></g></g></g></svg>
