<svg id="Livello_1" data-name="Livello 1" xmlns="http://www.w3.org/2000/svg" viewBox="0 0 841.89 595.28">
  <defs>
    <style>
      .cls-1 {
        fill: #24586c;
      }

      .cls-2 {
        fill: #eb6535;
      }

      .cls-3 {
        fill: #1b8fa7;
      }

      .cls-4 {
        fill: #eb6534;
      }
    </style>
  </defs>
  <g>
    <g>
      <path class="cls-1" d="M632.66,329.07a97.82,97.82,0,1,0,97.81,97.81A97.81,97.81,0,0,0,632.66,329.07Zm0,132.47a34.66,34.66,0,1,1,34.65-34.66A34.66,34.66,0,0,1,632.66,461.54Z"/>
      <path class="cls-2" d="M632.66,381.12a45.76,45.76,0,1,0,45.76,45.76A45.76,45.76,0,0,0,632.66,381.12Zm0,80.42a34.66,34.66,0,1,1,34.65-34.66A34.66,34.66,0,0,1,632.66,461.54Z"/>
    </g>
    <g>
      <path class="cls-1" d="M209.24,329.07a97.82,97.82,0,1,0,97.81,97.81A97.81,97.81,0,0,0,209.24,329.07Zm0,132.47a34.66,34.66,0,1,1,34.65-34.66A34.66,34.66,0,0,1,209.24,461.54Z"/>
      <path class="cls-2" d="M209.24,381.12A45.76,45.76,0,1,0,255,426.88,45.76,45.76,0,0,0,209.24,381.12Zm0,80.42a34.66,34.66,0,1,1,34.65-34.66A34.66,34.66,0,0,1,209.24,461.54Z"/>
      <path class="cls-3" d="M196.37,426.89a11.75,11.75,0,0,0,11.75,11.75H342.76v10.51H208.12a22.26,22.26,0,0,1,0-44.52H342.76v10.51H208.12A11.75,11.75,0,0,0,196.37,426.89Z"/>
    </g>
    <path class="cls-3" d="M649.66,426.42c-3-7.38-6.27-14.65-9.56-21.87-.54-1.17-5.3-12.29-6.74-15.7-3.73-8.87-7.26-17.83-11.5-26.46-2-4-4-8.31-4-12.88A13,13,0,0,1,619,344c.62-1.27,2.18-6.32,2.77-7.77,1.35-3.29,2.67-6.6,3.87-10a92.5,92.5,0,0,0,3.84-13.45,53.87,53.87,0,0,0,.48-16.38,134.78,134.78,0,0,0-3-16.91,157.66,157.66,0,0,0-9.56-27.34q-3-6.55-6.44-12.87a221.66,221.66,0,0,0-35.81-48.71c-1.13-1.17-2.28-2.31-3.44-3.45-1.7-1.66-3.68-3.65-5.87-4.65-1.21-.55-3.7-.16-5-.14q-2.92,0-5.85.28a86.53,86.53,0,0,0-11.87,1.79,87.5,87.5,0,0,0-22.46,8.32c-15.87,8.54-29.75,22.52-37.4,38.91-.9,1.92-2.21,2.15-4,2.18-3.46,0-6.93-.19-10.4,0l-.29,0c-.49,0-1,.06-1.47.1l-24,1.79,14,15.46,20.14-5.33v-6.47c3.12.43,6.23.83,9.31,1.47,7.57,1.58,10.14,4.85,8.78,12.28-1,5.57-2.34,11.07-3,16.73-.38,3.5-2.35,6-6.31,6.06-5.06.07-10.18.62-15.17-.23-20.75-3.54-41.26-8-60.4-17.21-2.24-1.08-4.53-2-7.07-1.59-6.74,1-13.21,2.79-18.75,7a12.35,12.35,0,0,0-1,1c-.15.18-.32.34-.48.52a11.37,11.37,0,0,0-.88,1.07c-.28.36-17.16-4.25-17.39-3.86-2.92,4.08-.13,8.26-1.65,13.05-.64,2,10.2,9.19,8.75,10.81-1.35,6.31,2.51,10.84,5.68,15.37a145.94,145.94,0,0,0,26.84,28.51v35.24a94.47,94.47,0,0,1-8.48,7,18.7,18.7,0,0,1-4.21,2.5l-2.65-.34a14.6,14.6,0,0,1-3-3.58c-10.93-15.92-25.13-28.2-41.11-38.95-13.19-8.86-27.4-15.68-41.22-23.29-13.43-7.39-24.83-16.9-32.49-30.35-5.41-9.5-9.82-19.42-11.61-30.35-.31-1.88.1-4.64-3.12-4.78-6.53.46-13.08.22-19.62.16-12.14-.11-24.56,1-36.43-2.19a64.71,64.71,0,0,0-6.68-1.7,10.84,10.84,0,0,0-8.85,2.15,55.94,55.94,0,0,0-6.26,7.05c-4.48,5.59-9.36,10.83-13.93,16.34a38.59,38.59,0,0,0-4.77,6.69c-2.07,4-3,10.49-.61,14.53a18.87,18.87,0,0,0,4.6,5.23,37.44,37.44,0,0,0,8.33,4.51c6.28,3.14,13,5.63,19.51,8.2q10.16,4,20.45,7.62,4.59,1.6,9.2,3.14c5.55,1.84,11.13,3.46,16.58,5.57q8.43,3.27,16.51,7.32c6.33,3.18,12.55,6.45,18.61,10.13,2.68,1.63,5.35,3.29,7.87,5.15A76,76,0,0,1,291.81,353c1.63,1.76,3.2,3.58,4.73,5.42a72.35,72.35,0,0,1,9.21,13.23c1,2,1.85,4,2.69,6.09a108,108,0,0,1,6.4,20,152.56,152.56,0,0,1,2.77,25.94c.2,7.16,0,14.34-.49,21.48q-.37,5.31-1,10.6c-.37,3.31-1.1,6.46.72,9.49,2.75,4.56,7.2,5,12.05,5.24,9.75.49,19.52,0,29.27-.06q8.63,0,17.25,0l8.51,0c14.76.06,29.51-.38,44.27-.38h47.55a76.91,76.91,0,0,0,10.52-.33l2.19-.33c1-.14,1.91-.29,2.87-.45a95.7,95.7,0,0,0,37.35-15,193.12,193.12,0,0,0,25.8-21.27c4.88-4.72,9.64-9.58,14.23-14.58,9.13-9.95,17.12-20.62,25.2-31.42,1.25-1.67,2.1.86,2.55,1.84,1,2.29,2,4.63,3,6.94q3,6.93,6,13.87c4.2,9.69,8.17,19.53,12.74,29,3.79,7.92,11.74,12.8,18.64,11.79C648,448.55,654.07,437.35,649.66,426.42ZM498,234.38c0-2.3,1.35-3.81,2.35-5.45,6.8-11.17,16.44-19.28,27.75-25.55a76.41,76.41,0,0,1,18.52-7.64c5.63-1.4,13.84-3.42,18.51.88a164.57,164.57,0,0,1,23.33,27.15c10.93,15.64,20.16,32.17,25.88,50.48.54,1.73,1,3.49,1.66,6.13C581.23,251.79,541.2,239.13,498,234.38Z"/>
    <path class="cls-1" d="M432.07,328.73a70.47,70.47,0,0,1,21.65-15.3c9.76-4.43,20.28-7,30.86-8.81,6.64-1.12,13.42-1.94,20.09-1.05,28.31,3.76,30.14,34.86,19.48,55.7-18.81,36.72-57.54,60.19-97.62,66.08a142.67,142.67,0,0,1-25.12,1.46q-5-.15-9.9-.66a12.63,12.63,0,0,1-5.53-1.49c-8.1-5.13-3.28-16.73,1.85-21.82a76.25,76.25,0,0,0,17.86-26.77c4.2-11.12,8.75-22.17,14.93-32.35A83.76,83.76,0,0,1,432.07,328.73Z"/>
    <path class="cls-3" d="M508.27,330.77c-3.67-8-12.47-8.41-19.85-7.21-9.61,1.57-31.88,7.59-45,22.09-13.22,12.94-20,51.29-36.23,66.06,11.38-1.12,33.59-9.18,38.54-11.14a5.84,5.84,0,0,0,2.49-1.52,8.47,8.47,0,0,0,1.22-2.83c2.47-7.67,10.7-14.76,17.57-18,7.07-3.35,28.68-14.94,36.61-25C512.37,342.07,509.08,332.56,508.27,330.77Zm-21.95,15.06a9.23,9.23,0,0,1-.91,2.17,17.17,17.17,0,0,1-5.33,5.3c-3.63,2.51-7.16,5-11.5,6a7.57,7.57,0,0,1-3.17.21,3.27,3.27,0,0,1-2.44-1.85,4.55,4.55,0,0,1-.05-2.51,22.91,22.91,0,0,1,6.52-12.12c3.36-3.21,9.42-6.71,14.13-4.51C486.52,339.91,487.1,343,486.32,345.83Z"/>
    <path class="cls-4" d="M373.13,286.65a19.65,19.65,0,0,0,2.54,9.93A85.72,85.72,0,0,0,388.16,313c11,11.82,23,22.38,36.84,30.77,6.59,4-7.2,12.4-9.7,14.4q-6.15,4.92-12.2,10c-3.39,2.83-6.85,6.74-11.07,8.33a3.42,3.42,0,0,1-4.45-1.21c-.88-1.26-1.8-2.49-2.65-3.77-10.39-15.55-24.17-27.4-39.65-37.74-13.56-9.07-28.1-16.2-42.35-24-14.53-7.92-26.3-18.69-34.18-33.66a105.46,105.46,0,0,1-8-19.39,60.14,60.14,0,0,1-2.3-10.26,6.17,6.17,0,0,0-.86-2.86c-1.23-1.8-4.33-1.43-6.23-1.68-25.87-3.39-51.63-16.61-69.09-36.17-.54-.6-1.06-1.21-1.58-1.83a78.41,78.41,0,0,1-12.11-19.56A66.76,66.76,0,0,1,165,173.22c-.43-1.87-1.42-8,2.14-4.74a17,17,0,0,0,4.13,2.79,35.44,35.44,0,0,0,5.12,1.83l4.31,1.3a4.08,4.08,0,0,0,1.86.25c2.15-.37,1-2.76.1-3.75-5.93-6.41-14.57-9.58-23.1-11.46-4.49-1-9.42-1.63-13.47.53a3.58,3.58,0,0,1-2,.68c-3.21-.32,3.47-5.54,4.25-6.06a49.18,49.18,0,0,1,8.67-4.43c10.9-4.46,23.68-4,34.82-.58,21,6.4,40.75,25.9,43.5,48.32.38,3.12.44,6.34,1.6,9.26a19.61,19.61,0,0,0,2.68,4.51,39.16,39.16,0,0,0,20,13.82,4,4,0,0,0,2.08.21c1.41-.37,1.43-2.47,1.9-3.59q1-2.46,2.3-4.82a56.35,56.35,0,0,1,5.94-8.88,57.2,57.2,0,0,1,18.43-14.67,47,47,0,0,1,17.48-5.14,46.75,46.75,0,0,0,6.48-.75c3.35-.79,6.34-2.67,9.21-4.58a3.67,3.67,0,0,0,1.41-1.38c.49-1.08-.5-1.28-.72-2.1a4.25,4.25,0,0,1,.46-3.53,22.41,22.41,0,0,1,9.5-9.17,4.08,4.08,0,0,0,1.85-1.37c.4-.67.15-1.76-.62-1.89s-1.78.79-2.32.18c-.41-.46.05-1.15.49-1.57,1.2-1.15,7.84-6,5.57-7.53-.57-.4-2.47-.24-3.29-.58-2.72-1.15,1-2.1,2.09-2.21a26.18,26.18,0,0,0,8.56-2.2,32.66,32.66,0,0,0,4.07-2.4l2.55-1.67c.29-.19.63-.54.43-.83a.61.61,0,0,0-.47-.23L343.09,143a2,2,0,0,1-1.45-.71c-1.06-1.71,4.86-1.49,5.58-1.6q3.73-.56,7.45-1.2c4.09-.71,8.4-1.63,11.44-4.46,1.31-1.22,2.31-2.73,3.5-4.07a19.12,19.12,0,0,1,10.59-6.06,49.32,49.32,0,0,1-15.62-.37,3.16,3.16,0,0,1-2.13-1c-1.47-2.09,1.4-1.33,2-1.31a19.61,19.61,0,0,0,6.77-1.49A28.91,28.91,0,0,0,382.86,113c3.45-3.76,6.2-8.67,11-10.34,1.59-.55,3.29-.69,4.9-1.19,4.11-1.3,5-5.58,6.06-9.27a94.83,94.83,0,0,1,6.46-16.49A12.51,12.51,0,0,1,413.82,72c4.68-4.35,6.79,2.18,8.4,5.53a95.91,95.91,0,0,0,7,11.65,13,13,0,0,0,2.62,3.14A12.52,12.52,0,0,0,435,94c4.73,1.92,9.62,3.58,14,6.28,4.77,3,7.24,6.76,9.89,11.57,2.15,4.31,4.66,8.49,7,12.72,2.16,3.94,5.93,7.08,9.08,10.3q6.45,6.6,13.21,12.9c2.34,2.17,4.7,4.32,6.87,6.66a96.76,96.76,0,0,1,8.82,11.42,36.09,36.09,0,0,1,3.24,5.4,19.59,19.59,0,0,1,1.76,8.46c-.12,7.32-2,16.52-8.28,21.14s-14.91,3.33-21.43.18a90.07,90.07,0,0,1-15.82-9.26,12.2,12.2,0,0,0-7.21-2.53,61.69,61.69,0,0,1-10-1.1c-6-1.25-11.33-3.62-15.19-8.62-2.31-3-5.55-4.23-9.18-4.51-10.74-.83-10.22,12.51-8.43,19.63A101.79,101.79,0,0,0,420,213.51c2.63,5.54,5.87,9.71,11.5,12.34a116.24,116.24,0,0,0,21.8,7.34c3.72.91,7.48,1.55,11.2,2.49,7.39,1.89,14.92,2.3,22.39,3.83,2.24.46,4.53.74,6.46,2.15,7.79,5.69,1.73,18.24.78,26a20.07,20.07,0,0,1-.91,4.69c-1.55,4.15-6.1,5.17-10.08,5.22a111,111,0,0,1-19-1.7A217.66,217.66,0,0,1,417,262.53c-6.37-2.59-12.77-5.32-19.68-3.38a34.78,34.78,0,0,0-16.68,10C376.16,274.19,373.2,280.38,373.13,286.65Z"/>
  </g>
</svg>
