<?xml version="1.0" encoding="UTF-8" standalone="no"?>
<!DOCTYPE svg PUBLIC "-//W3C//DTD SVG 1.1//EN" "http://www.w3.org/Graphics/SVG/1.1/DTD/svg11.dtd">
<svg version="1.1" xmlns="http://www.w3.org/2000/svg" xmlns:xlink="http://www.w3.org/1999/xlink" preserveAspectRatio="xMidYMid meet" viewBox="0 0 640 640" width="640" height="640"><defs><path d="M146.33 286.09C132.54 269.56 125.02 250.01 121.47 228.51C119.13 212.92 115.08 197.68 109.41 183.09C104.67 171.47 98.04 160.83 89.83 151.63C88.91 150.84 88.16 149.85 87.61 148.74C94.11 132.89 102.21 117.81 111.76 103.79C162.64 30.34 233.2 19.72 246.7 10.37C262.27 6.63 278.2 4.83 294.17 5.01C342.58 5.49 386.58 20.47 425.83 50.56C434.55 57.24 442.78 64.62 450.44 72.63C451.46 73.69 452.53 74.68 453.58 75.72C452.88 81.7 450.97 87.4 449.91 93.31C449.45 95.98 449.2 99.01 447.82 101.13C446.45 103.24 443.03 102.5 440.62 103.41C438.55 104.19 436.42 104.79 434.33 105.49C429.8 107.03 426.83 110.01 424.2 114.34C419.68 122.19 414 129.22 407.35 135.14C405.77 136.57 403.9 137.58 401.88 138.11C400.54 138.11 399.88 136.95 399.08 136.1C380.07 115.75 357.96 101.03 331.67 93.69C322.26 91.1 312.64 89.44 302.93 88.75C275.37 86.69 249.58 92.97 225.21 106.26C214.03 112.45 203.7 120.21 194.5 129.33C160.93 161.85 143.69 209.1 147.92 257.02C148.98 268.48 151.17 279.8 154.45 290.78C155.1 292.15 155.21 293.73 154.76 295.18C151.69 292.44 148.86 289.4 146.33 286.09Z" id="c7jyMQMSm"></path><path d="M374.44 470.06C387.42 475.36 399.45 482.93 410.06 492.45C378.26 538.03 349.61 571.74 342.89 580.55C328.27 598.07 313.37 615.23 297.65 631.62C297.46 631.83 295.9 633.43 295.71 633.63C294.98 634.58 293.66 634.72 292.77 633.95C292.71 633.91 292.66 633.86 292.61 633.8C290.61 632.28 288.74 630.57 287.02 628.7C252.44 590.45 226.81 557.9 220.12 550.04C219.46 549.2 218.66 548.49 218 547.66C230.6 522.6 248.46 500.92 270.21 484.29C272.15 482.7 274.24 481.34 276.47 480.24C278.43 480.24 278.89 482.1 279.73 483.33C283.25 488.76 286.61 494.31 290.15 499.73C293.32 504.58 296 504.55 299.07 499.73C306.06 488.83 312.78 477.75 319.64 466.76C320.59 465.25 321.34 463.38 323.27 462.76C340.63 460.71 358.21 463.21 374.44 470.06Z" id="ai50wbBrS"></path><path d="M98.53 329.18C104.22 333.24 110.28 336.71 116.62 339.52C128.18 344.58 140.26 345.24 152.54 344.25C152.72 344.23 154.14 344.08 154.32 344.07C155.32 345.23 154.48 346.03 154.12 346.77C146.49 362.23 140.96 378.64 135.11 394.84C132.7 401.77 130.75 408.87 129.26 416.09C129.21 416.91 128.93 417.7 128.44 418.34C124.96 413.71 122.48 408.44 119.67 403.37C110.53 386.81 102.47 369.61 95.56 351.89C91.86 342.27 87.02 333.16 83.72 323.33C82.59 320.42 81.67 317.43 80.98 314.38C86.53 319.7 92.39 324.65 98.53 329.18Z" id="avMadm5jH"></path><path d="M505.77 285.83C502.45 274.9 499.08 263.98 495.53 253.16C494.57 250.19 493.36 247.31 491.89 244.58C490.2 241.96 489.34 238.84 489.43 235.66C489.99 228.91 495.2 226.24 500.52 229.98C501.04 230.35 501.53 230.77 501.98 231.24C506.2 235.88 511.56 238.66 516.6 241.88C516.44 259.82 514.33 277.68 510.3 295.1C510.15 296.03 509.82 296.93 509.55 297.84C507.77 294.02 506.99 289.85 505.77 285.83Z" id="cgKvUuT1l"></path><path d="M408.81 146.26C412.57 144.19 416.55 142.63 420.67 141.62C417.54 144.59 414.62 147.8 410.64 149.56C410.28 148.9 409 146.59 408.81 146.26Z" id="d2c2gv7aNw"></path><path d="M619.9 192.13C599.66 172.84 579.1 153.96 558.68 134.95C557.26 133.74 556.02 132.32 554.99 130.73C552.39 126.32 549.64 122.03 547.36 117.37C539.51 100.22 523.96 88.44 506.07 86.09C501.42 85.53 497.16 83.09 494.17 79.28C492.52 77.18 490.85 75.07 489.26 72.91C483.61 65.05 478.43 56.82 473.74 48.27C471.03 43.51 467.74 43.53 464.61 48C462.59 51.19 460.95 54.63 459.72 58.24C457.15 64.69 452.41 80.47 452.05 81.75C450.58 87.42 449.34 93.16 448.2 98.9C447.6 102 446.23 103.71 443.19 104.19C439.63 104.93 436.14 106.03 432.78 107.47C429.43 108.67 426.58 111.04 424.69 114.19C421.8 118.89 418.61 123.37 415.14 127.62C411.23 132.54 407.26 137.47 401.27 139.77C396.62 141.9 391.74 143.41 386.74 144.27C385.57 144.45 384.29 144.87 384.07 146.29C383.81 147.97 385.16 148.59 386.33 149.2C387.38 149.74 388.52 150.07 389.69 150.19C395.9 150.71 402.13 151.17 408.3 149.74C411.94 148.19 415.61 146.65 418.74 145.19C415.96 146.88 413.32 149.74 409.97 151.38C403.7 154.47 397.28 157.56 394.19 164.67C391.98 169.74 388.34 172.3 383.45 173.94C374.78 176.83 366.15 179.81 357.13 181.22C355.59 181.45 353.74 181.67 353.53 183.71C353.33 185.75 355.15 186.18 356.62 186.63C359.34 187.55 362.16 188.14 365.01 188.37C367.71 188.45 370.4 188.9 372.99 189.72C372.38 191.74 370.86 192.39 369.57 193.21C362.99 197.49 355.71 199.94 348.36 202.22C346.25 202.87 342.99 202.79 342.84 205.78C342.73 208.34 345.77 208.31 347.61 209.16C350.64 210.58 350.94 211.65 348.72 214.28C346.5 216.9 344.17 219.18 341.79 221.51C339.41 223.84 339.48 224.91 342.71 226.15C345.42 227.2 345.55 227.82 343.31 229.95C341.07 232.08 339.13 233.64 336.97 235.39C327.3 243.12 326 247.88 330.12 259.31C330.12 259.41 330.05 259.56 329.93 259.93C324.54 260.69 319.03 261.25 313.51 261.77C294.24 263.37 275.07 266.2 256.13 270.27C239.2 273.9 222.84 279.97 207.48 288.32C198.62 293.28 190.16 298.88 181.66 304.43C177.29 307.63 171.56 307.91 166.92 305.14C162.44 302.94 158.35 299.94 154.85 296.25C140.5 281.68 130.21 264.61 125.39 244C122.46 231.36 120.55 218.47 117.24 205.9C112.86 189.07 106.26 173.44 95.91 159.64C94.49 157.69 92.92 155.87 91.22 154.2C88.66 151.78 86.03 149.43 83.35 147.14C80.78 144.84 78.1 142.69 75.31 140.7C72.93 139.15 70.62 137.39 68.16 135.9C65.7 134.42 63.26 133.08 60.73 131.82C56 129.51 51.11 127.57 46.11 126.01C32.81 121.84 19.06 119.51 5.66 115.81C4.77 115.6 3.84 115.6 2.95 115.81C1.33 116.21 -0.22 117.25 0.03 119.15C0.42 122.77 6.72 125.21 8.59 126.43C16.48 131.54 23.78 137.59 30.36 144.45C36.81 150.98 42.08 158.69 45.92 167.2C46.27 168.34 45.54 168.47 44.85 167.91C43.98 166.74 43.1 165.58 42.27 164.39C38.96 159.47 34.9 155.16 30.25 151.65C27.7 149.8 25.57 150.32 24.4 153.37C24.15 154.15 23.97 154.95 23.86 155.76C22.4 163.7 21.46 171.73 21.05 179.8C20.22 192.16 20.44 204.45 23.73 216.49C31.67 244.97 44.74 271.57 62.22 294.81C68 302.54 74.56 309.62 80.97 316.79C82.25 318.85 83.76 320.74 85.44 322.45C104.19 339.12 124.92 350.39 150.3 348.03C153.11 347.76 153.53 348.6 152.26 351.12C144.95 365.68 139.89 381.27 134.32 396.62C131.48 404.34 128.81 412.27 128.47 420.76C128.47 421.44 122.89 455.44 121.16 471.95C119.23 491.03 118.06 510.18 117.49 529.38C117.04 545 117.27 560.64 117.05 576.27C116.96 582.99 116.75 589.71 116.89 596.36C116.85 602.39 117.24 608.42 118.06 614.4C118.66 617.98 118.87 618.24 122.32 618.41C128.79 618.75 135.27 619.37 141.78 619.16C158.12 618.6 174.48 618.61 190.84 618.63C195.74 618.63 196.24 618.27 197.51 613.21C197.61 612.8 197.69 612.4 197.77 612C201.84 594.86 206.82 577.97 212.69 561.41C213.92 557.37 215.7 553.53 217.97 550.02C220.89 547.71 222.03 544.07 223.89 540.98C237.81 517.8 254.68 497.59 277.15 483.17C291.24 473.85 307.1 467.96 323.6 465.92C331.25 465.92 338.9 465.3 346.51 466.26C368.58 469.06 388.11 478.25 405.65 492.44C406.94 493.49 408.11 494.97 410.04 494.8C415.24 498.91 420.07 503.51 424.47 508.54C428.7 512.81 432.48 517.55 435.74 522.68C443.28 535.34 449.97 548.54 455.76 562.19C462.72 578.77 468.79 595.65 470.69 613.87C471.03 617.08 472.52 618.4 475.54 618.71C476.84 618.83 478.15 618.85 479.43 618.85C482.04 618.85 502.93 618.85 505.55 618.85C526.77 618.85 543.71 618.76 547.95 618.75C551.66 618.75 551.72 618.75 552.62 614.86C553.19 612.46 553.63 610.04 553.94 607.59C556.1 590.8 555.74 573.92 555.1 557.06C554.31 536.5 552.52 516.02 550.11 495.61C547.58 474.23 544.36 453 540.14 431.95C538.5 423.76 536.18 415.75 534.57 407.59C529.3 380.74 523.57 354.02 516.66 327.59C513.09 313.95 510.2 303.02 509.48 300.29C509.13 298.74 509.33 297.07 508.85 295.51C503.63 278.62 499.48 261.32 492.06 245.25C491.04 243.33 490.45 241.19 490.34 238.99C490.34 233.29 494.55 230.52 499.33 233.18C501.08 234.35 502.72 235.68 504.24 237.17C507.96 240.26 511.66 243.5 516.57 244.32C519.31 245.15 521.98 246.23 524.54 247.55C533.7 251.46 543 253.84 553.02 251.79C556.09 250.97 559.34 251.47 562.05 253.19C571.37 259.94 581.46 265.39 592.09 269.42C599.71 272.21 607.8 273.33 615.85 272.71C618.83 272.49 621.69 271.34 624.05 269.39C629.24 265.37 632.53 259.75 635.39 253.94C639.59 245.86 640.98 236.49 639.31 227.45C636.63 213.76 629.81 201.37 619.9 192.13Z" id="a1dyu7wbvM"></path></defs><g><g><g><use xlink:href="#c7jyMQMSm" opacity="1" fill="#1b8fa7" fill-opacity="1"></use><g><use xlink:href="#c7jyMQMSm" opacity="1" fill-opacity="0" stroke="#000000" stroke-width="1" stroke-opacity="0"></use></g></g><g><use xlink:href="#ai50wbBrS" opacity="1" fill="#1b8fa7" fill-opacity="1"></use><g><use xlink:href="#ai50wbBrS" opacity="1" fill-opacity="0" stroke="#000000" stroke-width="1" stroke-opacity="0"></use></g></g><g><use xlink:href="#avMadm5jH" opacity="1" fill="#1b8fa7" fill-opacity="1"></use><g><use xlink:href="#avMadm5jH" opacity="1" fill-opacity="0" stroke="#000000" stroke-width="1" stroke-opacity="0"></use></g></g><g><use xlink:href="#cgKvUuT1l" opacity="1" fill="#1b8fa7" fill-opacity="1"></use><g><use xlink:href="#cgKvUuT1l" opacity="1" fill-opacity="0" stroke="#000000" stroke-width="1" stroke-opacity="0"></use></g></g><g><use xlink:href="#d2c2gv7aNw" opacity="1" fill="#3a91a4" fill-opacity="1"></use><g><use xlink:href="#d2c2gv7aNw" opacity="1" fill-opacity="0" stroke="#000000" stroke-width="1" stroke-opacity="0"></use></g></g><g><use xlink:href="#a1dyu7wbvM" opacity="1" fill="#eb6534" fill-opacity="1"></use><g><use xlink:href="#a1dyu7wbvM" opacity="1" fill-opacity="0" stroke="#000000" stroke-width="1" stroke-opacity="0"></use></g></g></g></g></svg>