<?xml version="1.0" encoding="UTF-8" standalone="no"?>
<!DOCTYPE svg PUBLIC "-//W3C//DTD SVG 1.1//EN" "http://www.w3.org/Graphics/SVG/1.1/DTD/svg11.dtd">
<svg version="1.1" xmlns="http://www.w3.org/2000/svg" xmlns:xlink="http://www.w3.org/1999/xlink" preserveAspectRatio="xMidYMid meet" viewBox="0 0 640 640" width="640" height="640"><defs><path d="M335.63 57.15L343.32 57.91L350.92 58.97L358.41 60.31L365.8 61.93L373.08 63.82L380.24 65.99L387.28 68.42L394.19 71.11L400.96 74.05L407.59 77.23L414.07 80.66L420.4 84.32L426.57 88.2L432.57 92.31L438.39 96.63L444.04 101.17L449.5 105.91L454.77 110.84L459.85 115.97L464.72 121.28L469.38 126.78L473.83 132.44L478.05 138.28L482.04 144.28L485.8 150.43L489.33 156.74L492.6 163.18L495.62 169.77L498.38 176.49L500.88 183.34L503.11 190.3L505.06 197.38L506.73 204.57L508.11 211.86L509.19 219.25L509.97 226.73L510.44 234.29L510.6 241.94L510.44 249.58L509.97 257.16L509.19 264.69L508.11 272.17L506.73 279.61L505.06 287.02L503.11 294.41L500.88 301.79L498.38 309.16L495.62 316.54L492.6 323.94L489.33 331.35L485.8 338.8L482.04 346.29L478.05 353.83L473.83 361.42L469.38 369.08L464.72 376.82L459.85 384.64L454.77 392.55L449.5 400.56L444.04 408.68L438.39 416.92L432.57 425.29L426.57 433.79L420.4 442.43L414.07 451.23L407.59 460.19L400.96 469.32L394.19 478.63L387.28 488.13L380.24 497.82L373.08 507.72L365.8 517.83L358.41 528.16L350.92 538.72L343.32 549.53L335.63 560.58L327.86 571.89L320 583.46L312.14 571.89L304.37 560.58L296.68 549.53L289.08 538.72L281.59 528.16L274.2 517.83L266.92 507.72L259.76 497.82L252.72 488.13L245.81 478.63L239.04 469.32L232.41 460.19L225.93 451.23L219.6 442.43L213.43 433.79L207.43 425.29L201.61 416.92L195.96 408.68L190.5 400.56L185.23 392.55L180.15 384.64L175.28 376.82L170.62 369.08L166.17 361.42L161.95 353.83L157.96 346.29L154.2 338.8L150.67 331.35L147.4 323.94L144.38 316.54L141.62 309.16L139.12 301.79L136.89 294.41L134.94 287.02L133.27 279.61L131.89 272.17L130.81 264.69L130.03 257.16L129.56 249.58L129.4 241.94L129.56 234.29L130.03 226.73L130.81 219.25L131.89 211.86L133.27 204.57L134.94 197.38L136.89 190.3L139.12 183.34L141.62 176.49L144.38 169.77L147.4 163.18L150.67 156.74L154.2 150.43L157.96 144.28L161.95 138.28L166.17 132.44L170.62 126.78L175.28 121.28L180.15 115.97L185.23 110.84L190.5 105.91L195.96 101.17L201.61 96.63L207.43 92.31L213.43 88.2L219.6 84.32L225.93 80.66L232.41 77.23L239.04 74.05L245.81 71.11L252.72 68.42L259.76 65.99L266.92 63.82L274.2 61.93L281.59 60.31L289.08 58.97L296.68 57.91L304.37 57.15L312.14 56.69L320 56.54L327.86 56.69L335.63 57.15ZM312.6 144.65L308.95 145.01L305.36 145.51L301.8 146.14L298.3 146.91L294.86 147.81L291.46 148.84L288.13 149.99L284.86 151.26L281.65 152.65L278.51 154.16L275.44 155.78L272.44 157.52L269.52 159.36L266.68 161.3L263.92 163.35L261.24 165.5L258.66 167.74L256.16 170.08L253.76 172.51L251.45 175.03L249.24 177.63L247.14 180.31L245.13 183.08L243.24 185.92L241.46 188.83L239.79 191.82L238.24 194.88L236.81 198L235.5 201.18L234.32 204.42L233.26 207.72L232.34 211.08L231.55 214.48L230.9 217.93L230.38 221.43L230.02 224.98L229.79 228.56L229.72 232.18L229.79 235.8L230.02 239.38L230.38 242.92L230.9 246.42L231.55 249.88L232.34 253.28L233.26 256.64L234.32 259.94L235.5 263.18L236.81 266.36L238.24 269.48L239.79 272.54L241.46 275.52L243.24 278.44L245.13 281.28L247.14 284.04L249.24 286.73L251.45 289.33L253.76 291.85L256.16 294.28L258.66 296.62L261.24 298.86L263.92 301.01L266.68 303.06L269.52 305L272.44 306.84L275.44 308.57L278.51 310.2L281.65 311.71L284.86 313.1L288.13 314.37L291.46 315.52L294.86 316.55L298.3 317.45L301.8 318.22L305.36 318.85L308.95 319.35L312.6 319.71L316.28 319.93L320 320L323.72 319.93L327.4 319.71L331.05 319.35L334.64 318.85L338.2 318.22L341.7 317.45L345.14 316.55L348.54 315.52L351.87 314.37L355.14 313.1L358.35 311.71L361.49 310.2L364.56 308.57L367.56 306.84L370.48 305L373.32 303.06L376.08 301.01L378.76 298.86L381.34 296.62L383.84 294.28L386.24 291.85L388.55 289.33L390.76 286.73L392.86 284.04L394.87 281.28L396.76 278.44L398.54 275.52L400.21 272.54L401.76 269.48L403.19 266.36L404.5 263.18L405.68 259.94L406.74 256.64L407.66 253.28L408.45 249.88L409.1 246.42L409.62 242.92L409.98 239.38L410.21 235.8L410.28 232.18L410.21 228.56L409.98 224.98L409.62 221.43L409.1 217.93L408.45 214.48L407.66 211.08L406.74 207.72L405.68 204.42L404.5 201.18L403.19 198L401.76 194.88L400.21 191.82L398.54 188.83L396.76 185.92L394.87 183.08L392.86 180.31L390.76 177.63L388.55 175.03L386.24 172.51L383.84 170.08L381.34 167.74L378.76 165.5L376.08 163.35L373.32 161.3L370.48 159.36L367.56 157.52L364.56 155.78L361.49 154.16L358.35 152.65L355.14 151.26L351.87 149.99L348.54 148.84L345.14 147.81L341.7 146.91L338.2 146.14L334.64 145.51L331.05 145.01L327.4 144.65L323.72 144.43L320 144.36L316.28 144.43L312.6 144.65Z" id="c4zbhJmJEL"></path><path d="M610.74 191.78C591.12 174.09 571.19 156.77 551.39 139.33C550.01 138.23 548.81 136.92 547.82 135.46C545.3 131.42 542.63 127.48 540.42 123.22C532.81 107.48 517.74 96.68 500.39 94.53C495.88 94.01 491.75 91.77 488.85 88.27C487.25 86.35 485.63 84.42 484.09 82.43C478.61 75.22 473.59 67.68 469.05 59.84C466.41 55.48 463.22 55.49 460.19 59.59C458.24 62.52 456.65 65.67 455.46 68.98C452.96 74.89 448.37 89.37 448.02 90.54C446.6 95.74 445.39 101 444.29 106.28C443.71 109.11 442.37 110.68 439.43 111.12C435.97 111.8 432.59 112.81 429.33 114.13C426.09 115.23 423.33 117.41 421.49 120.3C418.69 124.6 415.6 128.72 412.24 132.61C408.44 137.12 404.6 141.64 398.79 143.75C394.28 145.71 389.55 147.09 384.7 147.88C383.56 148.05 382.33 148.43 382.12 149.74C381.86 151.28 383.17 151.85 384.3 152.4C385.32 152.9 386.43 153.2 387.56 153.31C393.59 153.79 399.62 154.21 405.61 152.9C409.13 151.48 412.69 150.06 415.73 148.73C413.03 150.27 410.47 152.9 407.22 154.4C401.14 157.23 394.92 160.07 391.93 166.59C389.79 171.24 386.26 173.59 381.51 175.09C373.1 177.74 364.74 180.48 355.99 181.77C354.51 181.98 352.71 182.18 352.51 184.05C352.31 185.92 354.08 186.32 355.5 186.73C358.14 187.58 360.87 188.11 363.63 188.33C366.26 188.4 368.86 188.81 371.37 189.57C370.78 191.42 369.3 192.02 368.06 192.77C361.68 196.7 354.62 198.94 347.49 201.03C345.45 201.63 342.29 201.56 342.15 204.29C342.03 206.65 344.98 206.62 346.77 207.4C349.7 208.7 350 209.68 347.84 212.09C345.69 214.5 343.44 216.58 341.13 218.72C338.81 220.86 338.89 221.84 342.02 222.98C344.64 223.94 344.77 224.51 342.6 226.46C340.43 228.42 338.55 229.85 336.45 231.45C327.08 238.54 325.82 242.9 329.81 253.39C329.81 253.48 329.74 253.62 329.63 253.96C324.4 254.66 319.06 255.17 313.71 255.65C295.03 257.11 276.45 259.71 258.08 263.44C241.67 266.77 225.8 272.34 210.92 280C202.33 284.55 194.12 289.68 185.89 294.77C181.64 297.71 176.09 297.96 171.6 295.42C167.25 293.41 163.29 290.65 159.89 287.27C145.98 273.9 136.01 258.26 131.33 239.35C128.49 227.75 126.64 215.93 123.43 204.41C119.18 188.97 112.79 174.64 102.75 161.98C101.38 160.19 99.86 158.52 98.2 156.99C95.72 154.77 93.17 152.61 90.58 150.52C88.08 148.41 85.48 146.44 82.78 144.6C80.47 143.19 78.23 141.57 75.85 140.21C73.47 138.85 71.1 137.62 68.65 136.47C64.06 134.34 59.32 132.56 54.47 131.14C41.57 127.31 28.25 125.17 15.25 121.78C14.39 121.59 13.49 121.59 12.63 121.78C11.06 122.15 9.55 123.1 9.8 124.85C10.18 128.16 16.29 130.4 18.1 131.52C25.74 136.21 32.83 141.75 39.21 148.05C45.45 154.04 50.56 161.11 54.29 168.91C54.63 169.96 53.92 170.08 53.25 169.57C52.4 168.49 51.55 167.43 50.75 166.33C47.54 161.82 43.6 157.87 39.09 154.65C36.63 152.95 34.56 153.44 33.42 156.23C33.19 156.94 33.01 157.68 32.9 158.42C31.48 165.7 30.58 173.06 30.18 180.47C29.37 191.81 29.58 203.07 32.77 214.12C40.47 240.24 53.14 264.64 70.09 285.95C75.69 293.04 82.06 299.53 88.27 306.11C89.51 307.99 90.97 309.73 92.6 311.3C110.78 326.59 130.87 336.92 155.48 334.76C158.2 334.51 158.61 335.28 157.38 337.59C150.29 350.94 145.39 365.25 139.99 379.32C137.24 386.41 134.64 393.68 134.32 401.46C134.32 402.08 128.9 433.27 127.23 448.41C125.36 465.91 124.23 483.47 123.67 501.08C123.23 515.41 123.46 529.75 123.25 544.09C123.16 550.25 122.95 556.42 123.09 562.51C123.05 568.05 123.43 573.58 124.23 579.05C124.81 582.34 125.01 582.58 128.35 582.74C134.63 583.05 140.91 583.62 147.22 583.42C163.06 582.91 178.93 582.92 194.79 582.94C199.54 582.94 200.02 582.61 201.25 577.96C201.35 577.59 201.42 577.23 201.51 576.86C205.45 561.13 210.28 545.64 215.96 530.46C217.16 526.75 218.88 523.24 221.08 520.02C223.92 517.89 225.02 514.56 226.82 511.72C240.32 490.46 256.67 471.92 278.46 458.7C292.11 450.16 307.5 444.75 323.49 442.88C330.91 442.88 338.32 442.31 345.7 443.19C367.09 445.76 386.03 454.19 403.04 467.2C404.29 468.17 405.42 469.53 407.29 469.37C412.33 473.14 417.01 477.36 421.28 481.97C425.38 485.89 429.05 490.24 432.21 494.94C439.51 506.55 446 518.66 451.62 531.17C458.36 546.38 464.25 561.86 466.09 578.57C466.41 581.52 467.86 582.73 470.79 583.01C472.06 583.12 473.32 583.14 474.56 583.14C477.1 583.14 497.35 583.14 499.88 583.14C520.46 583.14 536.88 583.06 540.99 583.05C544.59 583.05 544.64 583.05 545.52 579.48C546.07 577.28 546.49 575.06 546.8 572.82C548.9 557.41 548.54 541.93 547.92 526.47C547.15 507.61 545.42 488.83 543.08 470.11C540.63 450.51 537.51 431.03 533.42 411.72C531.83 404.21 529.58 396.87 528.02 389.38C522.91 364.76 517.36 340.26 510.65 316.02C507.19 303.5 504.39 293.48 503.69 290.97C503.35 289.55 503.55 288.02 503.08 286.59C498.02 271.1 494 255.24 486.81 240.5C485.82 238.73 485.25 236.77 485.14 234.75C485.14 229.52 489.22 226.99 493.86 229.42C495.55 230.5 497.15 231.72 498.62 233.08C502.22 235.92 505.81 238.89 510.57 239.64C513.22 240.4 515.81 241.4 518.29 242.61C527.18 246.19 536.2 248.38 545.9 246.49C548.88 245.74 552.03 246.2 554.66 247.78C563.69 253.97 573.48 258.97 583.78 262.66C591.17 265.22 599.01 266.25 606.81 265.68C609.71 265.48 612.48 264.42 614.76 262.64C619.8 258.95 622.99 253.79 625.76 248.46C629.84 241.06 631.18 232.46 629.56 224.17C626.96 211.62 620.35 200.25 610.74 191.78Z" id="bWuOCE3jR"></path></defs><g><g><g><use xlink:href="#c4zbhJmJEL" opacity="1" fill="#3a91a4" fill-opacity="1"></use></g><g><use xlink:href="#bWuOCE3jR" opacity="1" fill="#eb6534" fill-opacity="1"></use><g><use xlink:href="#bWuOCE3jR" opacity="1" fill-opacity="0" stroke="#000000" stroke-width="1" stroke-opacity="0"></use></g></g></g></g></svg>