<svg id="Livello_1" data-name="Livello 1" xmlns="http://www.w3.org/2000/svg" viewBox="0 0 841.89 595.28">
  <defs>
    <style>
      .cls-1 {
        fill: #1b8fa7;
      }

      .cls-2 {
        fill: #3a91a4;
      }

      .cls-3 {
        fill: #eb6534;
      }
    </style>
  </defs>
  <g>
    <path class="cls-1" d="M307.93,281.75a43.92,43.92,0,0,1-5.77-5.88c-9.43-10.7-14.57-23.35-17-37.26a131.76,131.76,0,0,0-8.25-29.39,70,70,0,0,0-13.39-20.35A6.1,6.1,0,0,1,262,187a156.12,156.12,0,0,1,16.52-29.09q34.8-47.52,92.29-60.44A139.91,139.91,0,0,1,403.28,94c33.11.31,63.2,10,90.05,29.47a145.15,145.15,0,0,1,16.83,14.28c.7.69,1.43,1.33,2.15,2-.48,3.87-1.79,7.56-2.51,11.38-.32,1.73-.49,3.69-1.43,5.06s-3.28.89-4.93,1.48c-1.41.5-2.87.89-4.3,1.34-3.1,1-5.13,2.93-6.93,5.73a54.92,54.92,0,0,1-11.52,13.46,9.2,9.2,0,0,1-3.74,1.92c-.92,0-1.37-.75-1.92-1.3-13-13.17-28.12-22.69-46.1-27.44a106.65,106.65,0,0,0-19.66-3.2c-18.85-1.33-36.49,2.73-53.16,11.33a95.58,95.58,0,0,0-21,14.93,99.53,99.53,0,0,0-31.86,82.62,106.8,106.8,0,0,0,4.47,21.84A3.8,3.8,0,0,1,307.93,281.75Z"/>
    <path class="cls-1" d="M423.18,390.18a72.67,72.67,0,0,1,35,4.72,85,85,0,0,1,24.36,14.49q-21.75,29.49-45.94,57c-10,11.34-20.19,22.44-30.94,33.05l-1.33,1.3a1.43,1.43,0,0,1-2.12.11,29.28,29.28,0,0,1-3.82-3.3q-23.65-24.75-45.76-50.9c-.45-.54-1-1-1.45-1.54a120.28,120.28,0,0,1,35.71-41,22.63,22.63,0,0,1,4.28-2.62c1.34,0,1.66,1.2,2.23,2,2.41,3.51,4.71,7.1,7.13,10.61,2.17,3.14,4,3.12,6.1,0,4.78-7.05,9.38-14.22,14.07-21.33C421.35,391.79,421.86,390.58,423.18,390.18Z"/>
    <path class="cls-1" d="M257.47,294.17a119.7,119.7,0,0,0,12,9.58,72.06,72.06,0,0,0,12.37,6.69c7.91,3.27,16.17,3.7,24.57,3.06l1.22-.12c.68.75.11,1.27-.14,1.75-5.22,10-9,20.62-13,31.1a104.53,104.53,0,0,0-4,13.75,2.61,2.61,0,0,1-.56,1.46c-2.38-3-4.08-6.41-6-9.69a269.89,269.89,0,0,1-16.49-33.31c-2.53-6.22-5.84-12.12-8.1-18.48A38.75,38.75,0,0,1,257.47,294.17Z"/>
    <path class="cls-1" d="M550.59,283.47c-1.22-2.47-1.75-5.17-2.59-7.77-2.27-7.07-4.57-14.14-7-21.14a32.47,32.47,0,0,0-2.49-5.55,9.71,9.71,0,0,1-1.68-5.77c.38-4.37,3.94-6.1,7.58-3.68a6.82,6.82,0,0,1,1,.82c2.89,3,6.55,4.8,10,6.88a150.87,150.87,0,0,1-4.31,34.44C551,282.3,550.77,282.88,550.59,283.47Z"/>
    <path class="cls-2" d="M482.94,187.53l-1.25-2.14a34.24,34.24,0,0,1,8.11-3C487.66,184.31,485.66,186.39,482.94,187.53Z"/>
  </g>
  <path class="cls-3" d="M639.35,236.41a41.76,41.76,0,0,0-13.28-22.85c-13.84-12.48-27.9-24.7-41.87-37a12.57,12.57,0,0,1-2.52-2.73c-1.78-2.85-3.66-5.63-5.22-8.64a36.34,36.34,0,0,0-28.24-20.24,12.4,12.4,0,0,1-8.14-4.41c-1.13-1.36-2.27-2.72-3.36-4.12a154.23,154.23,0,0,1-10.61-15.94c-1.86-3.08-4.11-3.07-6.25-.18a30.77,30.77,0,0,0-3.34,6.63c-1.76,4.17-5,14.38-5.25,15.21-1,3.67-1.85,7.38-2.63,11.1-.41,2-1.35,3.11-3.43,3.42a38.81,38.81,0,0,0-7.12,2.12,10.57,10.57,0,0,0-5.53,4.35,81.46,81.46,0,0,1-6.53,8.69c-2.68,3.18-5.39,6.37-9.49,7.86a41.87,41.87,0,0,1-9.94,2.91c-.8.12-1.67.39-1.82,1.31-.18,1.09.74,1.49,1.54,1.88a6.7,6.7,0,0,0,2.3.64c4.25.34,8.51.64,12.73-.29,2.49-1,5-2,7.14-2.94-1.9,1.09-3.71,2.94-6,4-4.29,2-8.68,4-10.79,8.6-1.51,3.28-4,4.94-7.35,6-5.93,1.87-11.83,3.8-18,4.71-1.05.15-2.32.29-2.46,1.61S445,209.71,446,210a25.38,25.38,0,0,0,5.74,1.13,20.94,20.94,0,0,1,5.46.87c-.42,1.31-1.46,1.73-2.34,2.26-4.5,2.77-9.48,4.35-14.51,5.83-1.44.42-3.67.37-3.77,2.3-.08,1.66,2,1.64,3.26,2.19,2.07.92,2.28,1.61.76,3.31s-3.11,3.17-4.74,4.68-1.58,2.2.63,3c1.85.68,1.94,1.08.41,2.46s-2.86,2.39-4.34,3.52c-6.61,5-7.5,8.08-4.68,15.48,0,.06-.05.16-.13.4-3.69.49-7.46.85-11.23,1.19a324.51,324.51,0,0,0-39.25,5.5A128.51,128.51,0,0,0,344,275.8c-6.06,3.21-11.85,6.83-17.66,10.42a9.49,9.49,0,0,1-10.08.46,28.92,28.92,0,0,1-8.26-5.75c-9.81-9.43-16.85-20.47-20.15-33.81-2-8.18-3.31-16.52-5.57-24.65-3-10.89-7.51-21-14.59-29.93a28.17,28.17,0,0,0-3.21-3.52c-1.75-1.57-3.55-3.09-5.38-4.57a65.14,65.14,0,0,0-5.5-4.17c-1.63-1-3.21-2.14-4.89-3.1s-3.35-1.83-5.08-2.64a72.11,72.11,0,0,0-10-3.76c-9.1-2.7-18.5-4.21-27.67-6.6a4.13,4.13,0,0,0-1.85,0c-1.11.26-2.17.93-2,2.16.27,2.34,4.58,3.92,5.86,4.71a83,83,0,0,1,14.89,11.66,50.62,50.62,0,0,1,10.64,14.72c.24.74-.26.82-.73.46-.6-.76-1.2-1.51-1.77-2.28a35.14,35.14,0,0,0-8.22-8.24c-1.74-1.2-3.2-.86-4,1.11a9,9,0,0,0-.37,1.55,113.1,113.1,0,0,0-1.92,15.55c-.57,8-.42,15.95,1.83,23.74A149.13,149.13,0,0,0,244.65,280c3.95,5,8.44,9.58,12.82,14.22a21.38,21.38,0,0,0,3.06,3.66c12.82,10.79,27,18.08,44.36,16.55,1.92-.17,2.21.37,1.34,2-5,9.42-8.46,19.51-12.27,29.44-1.94,5-3.77,10.13-4,15.62,0,.44-3.82,22.44-5,33.12-1.32,12.35-2.12,24.74-2.51,37.16-.31,10.11-.15,20.23-.3,30.34-.06,4.35-.21,8.7-.11,13a77.24,77.24,0,0,0,.8,11.67c.41,2.32.55,2.49,2.91,2.6,4.43.22,8.86.62,13.31.48,11.18-.36,22.37-.35,33.56-.34,3.35,0,3.69-.23,4.56-3.51.07-.26.12-.52.18-.78a304.56,304.56,0,0,1,10.2-32.73,28.67,28.67,0,0,1,3.61-7.37c2-1.5,2.78-3.85,4.05-5.85,9.52-15,21.06-28.08,36.43-37.41a76.76,76.76,0,0,1,31.77-11.16c5.23,0,10.46-.4,15.67.22,15.09,1.81,28.45,7.76,40.45,16.94.88.68,1.68,1.64,3,1.53a73.08,73.08,0,0,1,9.87,8.89,55.37,55.37,0,0,1,7.71,9.15A208.2,208.2,0,0,1,513.81,453c4.76,10.73,8.91,21.65,10.21,33.44.23,2.08,1.25,2.93,3.32,3.13.89.08,1.78.09,2.66.09l17.86,0q14.52,0,29-.06c2.54,0,2.58,0,3.2-2.52a44.26,44.26,0,0,0,.9-4.7c1.48-10.87,1.23-21.79.79-32.7-.54-13.3-1.76-26.55-3.41-39.76-1.73-13.83-3.93-27.57-6.82-41.19-1.12-5.3-2.71-10.48-3.81-15.76-3.6-17.37-7.52-34.66-12.25-51.76q-2.44-8.83-4.91-17.67c-.24-1-.1-2.08-.43-3.09-3.57-10.93-6.41-22.12-11.48-32.52a9.31,9.31,0,0,1-1.18-4.05c0-3.69,2.88-5.48,6.15-3.76a23.24,23.24,0,0,1,3.36,2.58c2.54,2,5.07,4.1,8.43,4.63a33.3,33.3,0,0,1,5.45,2.09c6.27,2.53,12.63,4.07,19.48,2.74a8.15,8.15,0,0,1,6.18.91,90.1,90.1,0,0,0,20.54,10.5,40.79,40.79,0,0,0,16.25,2.13,10.28,10.28,0,0,0,5.61-2.15c3.55-2.6,5.8-6.24,7.76-10A25.46,25.46,0,0,0,639.35,236.41Z"/>
</svg>
